<svg xmlns="http://www.w3.org/2000/svg" viewBox="0 0 960 320" fill="none">
  <rect width="960" height="320" rx="16" fill="#fafafa"/>
  <!-- Central dashboard mockup -->
  <rect x="180" y="20" width="600" height="280" rx="12" fill="white" stroke="#e5e5e5" stroke-width="1.5"/>
  <!-- Titlebar -->
  <rect x="180" y="20" width="600" height="36" rx="12" fill="#f5f5f5"/>
  <rect x="180" y="44" width="600" height="12" fill="#f5f5f5"/>
  <circle cx="200" cy="38" r="5" fill="#ef4444" fill-opacity="0.6"/>
  <circle cx="216" cy="38" r="5" fill="#f59e0b" fill-opacity="0.6"/>
  <circle cx="232" cy="38" r="5" fill="#65a30d" fill-opacity="0.6"/>
  <text x="440" y="42" font-family="system-ui,sans-serif" font-size="11" fill="#a3a3a3" text-anchor="middle">Laborobo — Today</text>
  <!-- Sidebar -->
  <rect x="180" y="56" width="140" height="244" fill="#fafafa" stroke="#e5e5e5" stroke-width="0.5"/>
  <rect x="196" y="72" width="108" height="24" rx="6" fill="#65a30d" fill-opacity="0.1"/>
  <circle cx="208" cy="84" r="4" fill="#65a30d"/>
  <text x="218" y="88" font-family="system-ui,sans-serif" font-size="9" font-weight="500" fill="#65a30d">Today</text>
  <text x="196" y="114" font-family="system-ui,sans-serif" font-size="9" fill="#a3a3a3">Projects</text>
  <text x="196" y="134" font-family="system-ui,sans-serif" font-size="9" fill="#a3a3a3">Inbox</text>
  <text x="196" y="154" font-family="system-ui,sans-serif" font-size="9" fill="#a3a3a3">Playbooks</text>
  <text x="196" y="174" font-family="system-ui,sans-serif" font-size="9" fill="#a3a3a3">Directory</text>
  <text x="196" y="194" font-family="system-ui,sans-serif" font-size="9" fill="#a3a3a3">Reports</text>
  <rect x="192" y="220" width="116" height="1" fill="#e5e5e5"/>
  <text x="196" y="244" font-family="system-ui,sans-serif" font-size="8" font-weight="500" fill="#a3a3a3">AI AGENTS</text>
  <circle cx="204" cy="262" r="4" fill="#65a30d" fill-opacity="0.4"/>
  <text x="214" y="266" font-family="system-ui,sans-serif" font-size="9" fill="#737373">Dispatcher</text>
  <circle cx="204" cy="280" r="4" fill="#65a30d" fill-opacity="0.4"/>
  <text x="214" y="284" font-family="system-ui,sans-serif" font-size="9" fill="#737373">PM Copilot</text>
  <!-- Main content -->
  <text x="340" y="80" font-family="system-ui,sans-serif" font-size="13" font-weight="600" fill="#171717">Good morning, Sarah</text>
  <text x="340" y="98" font-family="system-ui,sans-serif" font-size="10" fill="#a3a3a3">3 tasks need attention · 1 approval pending · 2 agent actions</text>
  <!-- Task cards -->
  <rect x="340" y="112" width="420" height="44" rx="8" fill="#f5f5f5"/>
  <rect x="352" y="124" width="16" height="16" rx="4" fill="#65a30d" fill-opacity="0.15"/>
  <path d="M356 132 L359 135 L364 129" stroke="#65a30d" stroke-width="1.5" fill="none" stroke-linecap="round"/>
  <text x="376" y="132" font-family="system-ui,sans-serif" font-size="10" font-weight="500" fill="#171717">Review website mockups — Acme Corp</text>
  <text x="376" y="146" font-family="system-ui,sans-serif" font-size="9" fill="#a3a3a3">WO-1042 · Due today</text>
  <rect x="688" y="124" width="56" height="20" rx="10" fill="#f59e0b" fill-opacity="0.1"/>
  <text x="698" y="138" font-family="system-ui,sans-serif" font-size="8" fill="#f59e0b">Review</text>
  <rect x="340" y="164" width="420" height="44" rx="8" fill="#f5f5f5"/>
  <rect x="352" y="176" width="16" height="16" rx="4" stroke="#d4d4d4" stroke-width="1.5"/>
  <text x="376" y="184" font-family="system-ui,sans-serif" font-size="10" font-weight="500" fill="#171717">Send Q1 profitability report to finance</text>
  <text x="376" y="198" font-family="system-ui,sans-serif" font-size="9" fill="#a3a3a3">WO-2003 · Due tomorrow</text>
  <rect x="688" y="176" width="56" height="20" rx="10" fill="#65a30d" fill-opacity="0.1"/>
  <text x="702" y="190" font-family="system-ui,sans-serif" font-size="8" fill="#65a30d">Draft</text>
  <!-- Agent activity -->
  <rect x="340" y="220" width="420" height="1" fill="#e5e5e5"/>
  <text x="340" y="244" font-family="system-ui,sans-serif" font-size="10" font-weight="600" fill="#525252">Agent Activity</text>
  <rect x="340" y="254" width="420" height="36" rx="6" fill="#65a30d" fill-opacity="0.03" stroke="#65a30d" stroke-opacity="0.1"/>
  <circle cx="356" cy="272" r="6" fill="#65a30d" fill-opacity="0.2"/>
  <text x="350" y="276" font-family="system-ui,sans-serif" font-size="8" font-weight="700" fill="#65a30d">AI</text>
  <text x="370" y="270" font-family="system-ui,sans-serif" font-size="9" fill="#525252">Dispatcher triaged 2 new client requests</text>
  <text x="370" y="282" font-family="system-ui,sans-serif" font-size="8" fill="#a3a3a3">3 min ago · Created WO-2004, WO-2005</text>
  <!-- Decorative elements -->
  <circle cx="80" cy="80" r="40" fill="#65a30d" fill-opacity="0.03" stroke="#65a30d" stroke-opacity="0.08"/>
  <circle cx="80" cy="80" r="20" fill="#65a30d" fill-opacity="0.05"/>
  <circle cx="880" cy="240" r="48" fill="#65a30d" fill-opacity="0.03" stroke="#65a30d" stroke-opacity="0.08"/>
  <circle cx="880" cy="240" r="24" fill="#65a30d" fill-opacity="0.05"/>
  <circle cx="120" cy="260" r="24" fill="#3b82f6" fill-opacity="0.03" stroke="#3b82f6" stroke-opacity="0.06"/>
  <circle cx="860" cy="60" r="28" fill="#8b5cf6" fill-opacity="0.03" stroke="#8b5cf6" stroke-opacity="0.06"/>
</svg>
