<svg xmlns="http://www.w3.org/2000/svg" viewBox="0 0 960 280" fill="none">
  <rect width="960" height="280" rx="16" fill="#fafafa"/>
  <!-- Left: project cards stacked -->
  <rect x="60" y="30" width="260" height="220" rx="12" fill="white" stroke="#e5e5e5"/>
  <text x="80" y="58" font-family="system-ui,sans-serif" font-size="11" font-weight="600" fill="#171717">Active Projects</text>
  <rect x="80" y="72" width="220" height="48" rx="8" fill="#65a30d" fill-opacity="0.04" stroke="#65a30d" stroke-opacity="0.15"/>
  <circle cx="96" cy="96" r="8" fill="#65a30d" fill-opacity="0.15"/>
  <text x="90" y="100" font-family="system-ui,sans-serif" font-size="8" font-weight="700" fill="#65a30d">A</text>
  <text x="112" y="92" font-family="system-ui,sans-serif" font-size="10" font-weight="500" fill="#171717">Acme Brand Refresh</text>
  <text x="112" y="106" font-family="system-ui,sans-serif" font-size="9" fill="#65a30d">$18K · 72% complete</text>
  <rect x="80" y="128" width="220" height="48" rx="8" fill="#f5f5f5"/>
  <circle cx="96" cy="152" r="8" fill="#3b82f6" fill-opacity="0.15"/>
  <text x="91" y="156" font-family="system-ui,sans-serif" font-size="8" font-weight="700" fill="#3b82f6">T</text>
  <text x="112" y="148" font-family="system-ui,sans-serif" font-size="10" font-weight="500" fill="#171717">TechStart Website</text>
  <text x="112" y="162" font-family="system-ui,sans-serif" font-size="9" fill="#a3a3a3">$24K · 45% complete</text>
  <rect x="80" y="184" width="220" height="48" rx="8" fill="#f5f5f5"/>
  <circle cx="96" cy="208" r="8" fill="#8b5cf6" fill-opacity="0.15"/>
  <text x="90" y="212" font-family="system-ui,sans-serif" font-size="8" font-weight="700" fill="#8b5cf6">M</text>
  <text x="112" y="204" font-family="system-ui,sans-serif" font-size="10" font-weight="500" fill="#171717">Meridian Campaign</text>
  <text x="112" y="218" font-family="system-ui,sans-serif" font-size="9" fill="#a3a3a3">$12K · 90% complete</text>
  <!-- Center: team + AI agents -->
  <rect x="350" y="30" width="260" height="220" rx="12" fill="white" stroke="#e5e5e5"/>
  <text x="370" y="58" font-family="system-ui,sans-serif" font-size="11" font-weight="600" fill="#171717">Your Team (5)</text>
  <text x="500" y="58" font-family="system-ui,sans-serif" font-size="11" font-weight="600" fill="#65a30d">+ 3 AI Agents</text>
  <!-- People -->
  <circle cx="390" cy="88" r="16" fill="#e0e7ff"/>
  <text x="385" y="92" font-family="system-ui,sans-serif" font-size="9" font-weight="600" fill="#4338ca">SM</text>
  <text x="370" y="116" font-family="system-ui,sans-serif" font-size="8" fill="#525252">Sarah</text>
  <circle cx="436" cy="88" r="16" fill="#fce7f3"/>
  <text x="430" y="92" font-family="system-ui,sans-serif" font-size="9" font-weight="600" fill="#be185d">JL</text>
  <text x="420" y="116" font-family="system-ui,sans-serif" font-size="8" fill="#525252">James</text>
  <circle cx="482" cy="88" r="16" fill="#dbeafe"/>
  <text x="476" y="92" font-family="system-ui,sans-serif" font-size="9" font-weight="600" fill="#1d4ed8">AK</text>
  <text x="470" y="116" font-family="system-ui,sans-serif" font-size="8" fill="#525252">Alex</text>
  <circle cx="528" cy="88" r="16" fill="#fef3c7"/>
  <text x="522" y="92" font-family="system-ui,sans-serif" font-size="9" font-weight="600" fill="#92400e">RD</text>
  <text x="516" y="116" font-family="system-ui,sans-serif" font-size="8" fill="#525252">Rosa</text>
  <circle cx="574" cy="88" r="16" fill="#d1fae5"/>
  <text x="568" y="92" font-family="system-ui,sans-serif" font-size="9" font-weight="600" fill="#065f46">MT</text>
  <text x="562" y="116" font-family="system-ui,sans-serif" font-size="8" fill="#525252">Mike</text>
  <!-- AI agents -->
  <rect x="370" y="132" width="220" height="1" fill="#e5e5e5"/>
  <circle cx="390" cy="160" r="16" fill="#65a30d" fill-opacity="0.12" stroke="#65a30d" stroke-opacity="0.3" stroke-dasharray="3 2"/>
  <text x="383" y="164" font-family="system-ui,sans-serif" font-size="8" font-weight="700" fill="#65a30d">AI</text>
  <text x="370" y="188" font-family="system-ui,sans-serif" font-size="8" fill="#65a30d">Copilot</text>
  <circle cx="436" cy="160" r="16" fill="#65a30d" fill-opacity="0.12" stroke="#65a30d" stroke-opacity="0.3" stroke-dasharray="3 2"/>
  <text x="429" y="164" font-family="system-ui,sans-serif" font-size="8" font-weight="700" fill="#65a30d">AI</text>
  <text x="416" y="188" font-family="system-ui,sans-serif" font-size="8" fill="#65a30d">Drafter</text>
  <circle cx="482" cy="160" r="16" fill="#65a30d" fill-opacity="0.12" stroke="#65a30d" stroke-opacity="0.3" stroke-dasharray="3 2"/>
  <text x="475" y="164" font-family="system-ui,sans-serif" font-size="8" font-weight="700" fill="#65a30d">AI</text>
  <text x="462" y="188" font-family="system-ui,sans-serif" font-size="8" fill="#65a30d">Reviewer</text>
  <!-- Capability text -->
  <rect x="370" y="204" width="220" height="32" rx="6" fill="#65a30d" fill-opacity="0.04"/>
  <text x="382" y="224" font-family="system-ui,sans-serif" font-size="9" fill="#65a30d">5 humans + 3 AI = 20-person output</text>
  <!-- Right: margin indicator -->
  <rect x="640" y="30" width="260" height="220" rx="12" fill="white" stroke="#e5e5e5"/>
  <text x="660" y="58" font-family="system-ui,sans-serif" font-size="11" font-weight="600" fill="#171717">Margin Health</text>
  <!-- Donut chart approximation -->
  <circle cx="770" cy="140" r="60" fill="none" stroke="#e5e5e5" stroke-width="16"/>
  <circle cx="770" cy="140" r="60" fill="none" stroke="#65a30d" stroke-width="16" stroke-dasharray="264 113" stroke-dashoffset="0" transform="rotate(-90 770 140)"/>
  <text x="770" y="136" font-family="system-ui,sans-serif" font-size="22" font-weight="700" fill="#171717" text-anchor="middle">34%</text>
  <text x="770" y="154" font-family="system-ui,sans-serif" font-size="10" fill="#65a30d" text-anchor="middle">Net margin</text>
  <text x="660" y="228" font-family="system-ui,sans-serif" font-size="9" fill="#a3a3a3">All 3 projects profitable</text>
  <rect x="660" y="236" width="60" height="4" rx="2" fill="#65a30d"/>
  <rect x="726" y="236" width="40" height="4" rx="2" fill="#65a30d" fill-opacity="0.5"/>
  <rect x="772" y="236" width="30" height="4" rx="2" fill="#65a30d" fill-opacity="0.3"/>
</svg>
