<svg xmlns="http://www.w3.org/2000/svg" viewBox="0 0 960 280" fill="none">
  <rect width="960" height="280" rx="16" fill="#fafafa"/>
  <!-- Left: Knowledge capture -->
  <rect x="60" y="24" width="280" height="232" rx="12" fill="white" stroke="#e5e5e5"/>
  <text x="80" y="52" font-family="system-ui,sans-serif" font-size="11" font-weight="600" fill="#171717">Knowledge Base</text>
  <rect x="80" y="64" width="240" height="40" rx="6" fill="#65a30d" fill-opacity="0.04" stroke="#65a30d" stroke-opacity="0.12"/>
  <text x="92" y="82" font-family="system-ui,sans-serif" font-size="10" font-weight="500" fill="#171717">Network Audit SOP</text>
  <text x="92" y="96" font-family="system-ui,sans-serif" font-size="8" fill="#65a30d">18 steps · Used 47x · by Sr. Engineer</text>
  <rect x="80" y="112" width="240" height="40" rx="6" fill="#f5f5f5"/>
  <text x="92" y="130" font-family="system-ui,sans-serif" font-size="10" font-weight="500" fill="#171717">Client Onboarding Flow</text>
  <text x="92" y="144" font-family="system-ui,sans-serif" font-size="8" fill="#a3a3a3">12 steps · Used 31x · by Account Mgr</text>
  <rect x="80" y="160" width="240" height="40" rx="6" fill="#f5f5f5"/>
  <text x="92" y="178" font-family="system-ui,sans-serif" font-size="10" font-weight="500" fill="#171717">Security Assessment</text>
  <text x="92" y="192" font-family="system-ui,sans-serif" font-size="8" fill="#a3a3a3">15 steps · Used 23x · by Security Lead</text>
  <rect x="80" y="210" width="240" height="32" rx="6" fill="#65a30d" fill-opacity="0.06"/>
  <text x="92" y="230" font-family="system-ui,sans-serif" font-size="9" fill="#65a30d">Knowledge never walks out the door</text>
  <!-- Center: Engagement context -->
  <rect x="370" y="24" width="220" height="232" rx="12" fill="white" stroke="#e5e5e5"/>
  <text x="390" y="52" font-family="system-ui,sans-serif" font-size="11" font-weight="600" fill="#171717">Acme Corp</text>
  <text x="390" y="68" font-family="system-ui,sans-serif" font-size="9" fill="#a3a3a3">Everything in one place</text>
  <rect x="390" y="80" width="180" height="1" fill="#e5e5e5"/>
  <!-- Items -->
  <rect x="390" y="92" width="180" height="28" rx="6" fill="#f5f5f5"/>
  <rect x="398" y="100" width="4" height="12" rx="2" fill="#65a30d"/>
  <text x="410" y="110" font-family="system-ui,sans-serif" font-size="9" fill="#171717">3 Active Work Orders</text>
  <rect x="390" y="128" width="180" height="28" rx="6" fill="#f5f5f5"/>
  <rect x="398" y="136" width="4" height="12" rx="2" fill="#3b82f6"/>
  <text x="410" y="146" font-family="system-ui,sans-serif" font-size="9" fill="#171717">12 Communication threads</text>
  <rect x="390" y="164" width="180" height="28" rx="6" fill="#f5f5f5"/>
  <rect x="398" y="172" width="4" height="12" rx="2" fill="#8b5cf6"/>
  <text x="410" y="182" font-family="system-ui,sans-serif" font-size="9" fill="#171717">8 Deliverables</text>
  <rect x="390" y="200" width="180" height="28" rx="6" fill="#f5f5f5"/>
  <rect x="398" y="208" width="4" height="12" rx="2" fill="#f59e0b"/>
  <text x="410" y="218" font-family="system-ui,sans-serif" font-size="9" fill="#171717">$52K Revenue · 40% margin</text>
  <rect x="390" y="236" width="180" height="12" rx="6" fill="#65a30d" fill-opacity="0.06"/>
  <text x="400" y="246" font-family="system-ui,sans-serif" font-size="8" fill="#65a30d">Full history since Jan 2024</text>
  <!-- Right: Profitability -->
  <rect x="620" y="24" width="280" height="232" rx="12" fill="white" stroke="#e5e5e5"/>
  <text x="640" y="52" font-family="system-ui,sans-serif" font-size="11" font-weight="600" fill="#171717">Real-Time Profitability</text>
  <!-- Mini bar chart -->
  <text x="640" y="82" font-family="system-ui,sans-serif" font-size="9" fill="#a3a3a3">By Client — Q1</text>
  <text x="640" y="106" font-family="system-ui,sans-serif" font-size="9" fill="#525252">Acme Corp</text>
  <rect x="720" y="96" width="120" height="12" rx="3" fill="#e5e5e5"/>
  <rect x="720" y="96" width="96" height="12" rx="3" fill="#65a30d"/>
  <text x="848" y="106" font-family="system-ui,sans-serif" font-size="9" font-weight="600" fill="#65a30d">40%</text>
  <text x="640" y="132" font-family="system-ui,sans-serif" font-size="9" fill="#525252">TechStart</text>
  <rect x="720" y="122" width="120" height="12" rx="3" fill="#e5e5e5"/>
  <rect x="720" y="122" width="72" height="12" rx="3" fill="#65a30d"/>
  <text x="848" y="132" font-family="system-ui,sans-serif" font-size="9" font-weight="600" fill="#65a30d">30%</text>
  <text x="640" y="158" font-family="system-ui,sans-serif" font-size="9" fill="#525252">Global Svc</text>
  <rect x="720" y="148" width="120" height="12" rx="3" fill="#e5e5e5"/>
  <rect x="720" y="148" width="48" height="12" rx="3" fill="#f59e0b"/>
  <text x="848" y="158" font-family="system-ui,sans-serif" font-size="9" font-weight="600" fill="#f59e0b">20%</text>
  <text x="640" y="184" font-family="system-ui,sans-serif" font-size="9" fill="#525252">Meridian</text>
  <rect x="720" y="174" width="120" height="12" rx="3" fill="#e5e5e5"/>
  <rect x="720" y="174" width="64" height="12" rx="3" fill="#65a30d"/>
  <text x="848" y="184" font-family="system-ui,sans-serif" font-size="9" font-weight="600" fill="#65a30d">27%</text>
  <!-- Total -->
  <rect x="640" y="200" width="240" height="1" fill="#e5e5e5"/>
  <text x="640" y="224" font-family="system-ui,sans-serif" font-size="13" font-weight="700" fill="#171717">31% avg margin</text>
  <text x="640" y="242" font-family="system-ui,sans-serif" font-size="9" fill="#65a30d">Above 25% target</text>
</svg>
