<svg xmlns="http://www.w3.org/2000/svg" viewBox="0 0 960 280" fill="none">
  <rect width="960" height="280" rx="16" fill="#fafafa"/>
  <!-- Left: chaotic inputs -->
  <rect x="40" y="30" width="200" height="220" rx="12" fill="white" stroke="#e5e5e5"/>
  <text x="60" y="58" font-family="system-ui,sans-serif" font-size="10" font-weight="600" fill="#ef4444">Incoming Chaos</text>
  <rect x="60" y="70" width="160" height="32" rx="6" fill="#fef3c7" stroke="#f59e0b" stroke-opacity="0.2"/>
  <text x="72" y="84" font-family="system-ui,sans-serif" font-size="8" fill="#92400e">Email</text>
  <text x="72" y="96" font-family="system-ui,sans-serif" font-size="9" fill="#525252">"Fix the printer ASAP"</text>
  <rect x="60" y="110" width="160" height="32" rx="6" fill="#dbeafe" stroke="#3b82f6" stroke-opacity="0.2"/>
  <text x="72" y="124" font-family="system-ui,sans-serif" font-size="8" fill="#1e40af">Slack</text>
  <text x="72" y="136" font-family="system-ui,sans-serif" font-size="9" fill="#525252">"Need VPN for new hire"</text>
  <rect x="60" y="150" width="160" height="32" rx="6" fill="#f3e8ff" stroke="#8b5cf6" stroke-opacity="0.2"/>
  <text x="72" y="164" font-family="system-ui,sans-serif" font-size="8" fill="#5b21b6">Walk-up</text>
  <text x="72" y="176" font-family="system-ui,sans-serif" font-size="9" fill="#525252">"AC broken in server rm"</text>
  <rect x="60" y="190" width="160" height="32" rx="6" fill="#fef2f2" stroke="#ef4444" stroke-opacity="0.2"/>
  <text x="72" y="204" font-family="system-ui,sans-serif" font-size="8" fill="#991b1b">Sticky note</text>
  <text x="72" y="216" font-family="system-ui,sans-serif" font-size="9" fill="#525252">"Update conf room wifi"</text>
  <!-- Arrow: chaos → AI -->
  <path d="M252 140 L320 140" stroke="#d4d4d4" stroke-width="2" marker-end="url(#ha)"/>
  <!-- Center: AI Dispatcher -->
  <rect x="332" y="60" width="160" height="160" rx="16" fill="#65a30d" fill-opacity="0.06" stroke="#65a30d" stroke-opacity="0.25" stroke-width="2"/>
  <circle cx="412" cy="112" r="24" fill="#65a30d" fill-opacity="0.15"/>
  <text x="400" y="116" font-family="system-ui,sans-serif" font-size="14" font-weight="700" fill="#65a30d">AI</text>
  <text x="374" y="156" font-family="system-ui,sans-serif" font-size="12" font-weight="600" fill="#365314">Dispatcher</text>
  <text x="362" y="174" font-family="system-ui,sans-serif" font-size="9" fill="#737373">Extracts scope</text>
  <text x="362" y="188" font-family="system-ui,sans-serif" font-size="9" fill="#737373">Assigns urgency</text>
  <text x="362" y="202" font-family="system-ui,sans-serif" font-size="9" fill="#737373">Routes to owner</text>
  <!-- Arrow: AI → structured -->
  <path d="M504 140 L572 140" stroke="#65a30d" stroke-width="2" stroke-opacity="0.5" marker-end="url(#ha2)"/>
  <!-- Right: Structured output -->
  <rect x="584" y="30" width="336" height="220" rx="12" fill="white" stroke="#e5e5e5"/>
  <text x="604" y="58" font-family="system-ui,sans-serif" font-size="10" font-weight="600" fill="#65a30d">Structured Work Orders</text>
  <rect x="604" y="68" width="296" height="52" rx="8" fill="#f5f5f5"/>
  <rect x="604" y="68" width="4" height="52" rx="2" fill="#ef4444"/>
  <text x="618" y="84" font-family="system-ui,sans-serif" font-size="8" font-weight="600" fill="#ef4444">URGENT</text>
  <text x="618" y="98" font-family="system-ui,sans-serif" font-size="10" font-weight="500" fill="#171717">WO-2001: Printer repair — Floor 3</text>
  <text x="618" y="112" font-family="system-ui,sans-serif" font-size="8" fill="#a3a3a3">Owner: Mike T. · Due: Today · Stage: Draft</text>
  <rect x="604" y="128" width="296" height="52" rx="8" fill="#f5f5f5"/>
  <rect x="604" y="128" width="4" height="52" rx="2" fill="#f59e0b"/>
  <text x="618" y="144" font-family="system-ui,sans-serif" font-size="8" font-weight="600" fill="#f59e0b">NORMAL</text>
  <text x="618" y="158" font-family="system-ui,sans-serif" font-size="10" font-weight="500" fill="#171717">WO-2002: VPN setup — New hire onboarding</text>
  <text x="618" y="172" font-family="system-ui,sans-serif" font-size="8" fill="#a3a3a3">Owner: Lisa K. · Due: Tomorrow · Stage: Draft</text>
  <rect x="604" y="188" width="296" height="52" rx="8" fill="#f5f5f5"/>
  <rect x="604" y="188" width="4" height="52" rx="2" fill="#ef4444"/>
  <text x="618" y="204" font-family="system-ui,sans-serif" font-size="8" font-weight="600" fill="#ef4444">URGENT</text>
  <text x="618" y="218" font-family="system-ui,sans-serif" font-size="10" font-weight="500" fill="#171717">WO-2003: AC repair — Server room</text>
  <text x="618" y="232" font-family="system-ui,sans-serif" font-size="8" fill="#a3a3a3">Owner: Mike T. · Due: Today · Stage: Draft</text>
  <defs>
    <marker id="ha" viewBox="0 0 8 8" refX="8" refY="4" markerWidth="8" markerHeight="8" orient="auto"><path d="M0 0 L8 4 L0 8z" fill="#d4d4d4"/></marker>
    <marker id="ha2" viewBox="0 0 8 8" refX="8" refY="4" markerWidth="8" markerHeight="8" orient="auto"><path d="M0 0 L8 4 L0 8z" fill="#65a30d" fill-opacity="0.5"/></marker>
  </defs>
</svg>
