<svg xmlns="http://www.w3.org/2000/svg" viewBox="0 0 800 400" fill="none">
  <rect width="800" height="400" rx="12" fill="#fafafa"/>
  <rect x="24" y="24" width="752" height="352" rx="8" fill="white" stroke="#e5e5e5"/>
  <text x="44" y="56" font-family="system-ui,sans-serif" font-size="13" font-weight="600" fill="#171717">Works With Your Existing Tools</text>
  <!-- Left column: external tools -->
  <text x="60" y="92" font-family="system-ui,sans-serif" font-size="10" font-weight="600" fill="#a3a3a3">YOUR TOOLS</text>
  <rect x="44" y="104" width="180" height="48" rx="8" fill="#f5f5f5" stroke="#e5e5e5"/>
  <circle cx="72" cy="128" r="12" fill="#4A154B" fill-opacity="0.15"/>
  <text x="68" y="132" font-family="system-ui,sans-serif" font-size="8" font-weight="700" fill="#4A154B">S</text>
  <text x="92" y="124" font-family="system-ui,sans-serif" font-size="11" font-weight="500" fill="#171717">Slack</text>
  <text x="92" y="138" font-family="system-ui,sans-serif" font-size="9" fill="#a3a3a3">Request intake</text>
  <rect x="44" y="162" width="180" height="48" rx="8" fill="#f5f5f5" stroke="#e5e5e5"/>
  <circle cx="72" cy="186" r="12" fill="#0078D4" fill-opacity="0.15"/>
  <text x="66" y="190" font-family="system-ui,sans-serif" font-size="8" font-weight="700" fill="#0078D4">O</text>
  <text x="92" y="182" font-family="system-ui,sans-serif" font-size="11" font-weight="500" fill="#171717">Outlook</text>
  <text x="92" y="196" font-family="system-ui,sans-serif" font-size="9" fill="#a3a3a3">Email requests</text>
  <rect x="44" y="220" width="180" height="48" rx="8" fill="#f5f5f5" stroke="#e5e5e5"/>
  <circle cx="72" cy="244" r="12" fill="#00897B" fill-opacity="0.15"/>
  <text x="65" y="248" font-family="system-ui,sans-serif" font-size="8" font-weight="700" fill="#00897B">SF</text>
  <text x="92" y="240" font-family="system-ui,sans-serif" font-size="11" font-weight="500" fill="#171717">Salesforce</text>
  <text x="92" y="254" font-family="system-ui,sans-serif" font-size="9" fill="#a3a3a3">CRM (optional)</text>
  <rect x="44" y="278" width="180" height="48" rx="8" fill="#f5f5f5" stroke="#e5e5e5"/>
  <circle cx="72" cy="302" r="12" fill="#FF6F00" fill-opacity="0.15"/>
  <text x="65" y="306" font-family="system-ui,sans-serif" font-size="8" font-weight="700" fill="#FF6F00">JR</text>
  <text x="92" y="298" font-family="system-ui,sans-serif" font-size="11" font-weight="500" fill="#171717">Jira</text>
  <text x="92" y="312" font-family="system-ui,sans-serif" font-size="9" fill="#a3a3a3">Ticket sync</text>
  <!-- Arrows -->
  <path d="M232 128 L296 178" stroke="#65a30d" stroke-width="1.5" stroke-opacity="0.4" marker-end="url(#arw3)"/>
  <path d="M232 186 L296 194" stroke="#65a30d" stroke-width="1.5" stroke-opacity="0.4" marker-end="url(#arw3)"/>
  <path d="M232 244 L296 210" stroke="#65a30d" stroke-width="1.5" stroke-opacity="0.4" marker-end="url(#arw3)"/>
  <path d="M232 302 L296 226" stroke="#65a30d" stroke-width="1.5" stroke-opacity="0.4" marker-end="url(#arw3)"/>
  <!-- Center: Workumi -->
  <rect x="304" y="108" width="192" height="184" rx="16" fill="#65a30d" fill-opacity="0.06" stroke="#65a30d" stroke-opacity="0.3" stroke-width="2"/>
  <rect x="340" y="128" width="120" height="36" rx="8" fill="#65a30d" fill-opacity="0.12"/>
  <text x="364" y="150" font-family="system-ui,sans-serif" font-size="12" font-weight="700" fill="#365314">Workumi</text>
  <text x="330" y="186" font-family="system-ui,sans-serif" font-size="10" fill="#525252">Projects</text>
  <rect x="394" y="176" width="8" height="8" rx="2" fill="#65a30d"/>
  <text x="330" y="206" font-family="system-ui,sans-serif" font-size="10" fill="#525252">Work Orders</text>
  <rect x="414" y="196" width="8" height="8" rx="2" fill="#65a30d"/>
  <text x="330" y="226" font-family="system-ui,sans-serif" font-size="10" fill="#525252">Tasks</text>
  <rect x="370" y="216" width="8" height="8" rx="2" fill="#65a30d"/>
  <text x="330" y="246" font-family="system-ui,sans-serif" font-size="10" fill="#525252">AI Agents</text>
  <rect x="392" y="236" width="8" height="8" rx="2" fill="#65a30d"/>
  <text x="330" y="266" font-family="system-ui,sans-serif" font-size="10" fill="#525252">Playbooks</text>
  <rect x="392" y="256" width="8" height="8" rx="2" fill="#65a30d"/>
  <!-- Arrows right -->
  <path d="M504 178 L564 128" stroke="#65a30d" stroke-width="1.5" stroke-opacity="0.4" marker-end="url(#arw3)"/>
  <path d="M504 194 L564 186" stroke="#65a30d" stroke-width="1.5" stroke-opacity="0.4" marker-end="url(#arw3)"/>
  <path d="M504 210 L564 244" stroke="#65a30d" stroke-width="1.5" stroke-opacity="0.4" marker-end="url(#arw3)"/>
  <path d="M504 226 L564 302" stroke="#65a30d" stroke-width="1.5" stroke-opacity="0.4" marker-end="url(#arw3)"/>
  <!-- Right column: outputs -->
  <text x="588" y="92" font-family="system-ui,sans-serif" font-size="10" font-weight="600" fill="#a3a3a3">OUTPUTS</text>
  <rect x="572" y="104" width="192" height="48" rx="8" fill="#65a30d" fill-opacity="0.04" stroke="#65a30d" stroke-opacity="0.15"/>
  <text x="588" y="124" font-family="system-ui,sans-serif" font-size="11" font-weight="500" fill="#171717">Structured work orders</text>
  <text x="588" y="140" font-family="system-ui,sans-serif" font-size="9" fill="#65a30d">Scope, budget, owner, deadline</text>
  <rect x="572" y="162" width="192" height="48" rx="8" fill="#65a30d" fill-opacity="0.04" stroke="#65a30d" stroke-opacity="0.15"/>
  <text x="588" y="182" font-family="system-ui,sans-serif" font-size="11" font-weight="500" fill="#171717">Status tracking</text>
  <text x="588" y="198" font-family="system-ui,sans-serif" font-size="9" fill="#65a30d">Real-time progress updates</text>
  <rect x="572" y="220" width="192" height="48" rx="8" fill="#65a30d" fill-opacity="0.04" stroke="#65a30d" stroke-opacity="0.15"/>
  <text x="588" y="240" font-family="system-ui,sans-serif" font-size="11" font-weight="500" fill="#171717">Profitability reports</text>
  <text x="588" y="256" font-family="system-ui,sans-serif" font-size="9" fill="#65a30d">Margin tracking per project</text>
  <rect x="572" y="278" width="192" height="48" rx="8" fill="#65a30d" fill-opacity="0.04" stroke="#65a30d" stroke-opacity="0.15"/>
  <text x="588" y="298" font-family="system-ui,sans-serif" font-size="11" font-weight="500" fill="#171717">Audit trail</text>
  <text x="588" y="314" font-family="system-ui,sans-serif" font-size="9" fill="#65a30d">Complete work history</text>
  <!-- Bottom note -->
  <text x="304" y="356" font-family="system-ui,sans-serif" font-size="10" fill="#a3a3a3" text-anchor="middle" x="400">Replace tools or keep them — Workumi works either way</text>
  <defs><marker id="arw3" viewBox="0 0 6 6" refX="6" refY="3" markerWidth="6" markerHeight="6" orient="auto"><path d="M0 0 L6 3 L0 6z" fill="#65a30d" fill-opacity="0.5"/></marker></defs>
</svg>
