<svg width="220" height="48" viewBox="0 0 220 48" fill="none" xmlns="http://www.w3.org/2000/svg">
  <!-- Icon background -->
  <rect width="40" height="40" rx="8" y="4" fill="#4F46E5"/>

  <!-- Human head profile silhouette -->
  <path d="M27 12C27 12 28.5 14.5 28.5 17C28.5 19.5 27 21 27 22.5C27 24 28.5 25.5 28.5 27C28.5 28.5 27 30 25.5 31.5C24 33 21.5 34.5 19 34.5C16.5 34.5 14 33 12.5 31.5C11 30 9.5 27 9.5 24C9.5 21 11 18 12.5 16.5C14 15 15.5 13.5 17 12.5C18.5 11.5 20 10.5 22.5 10.5C25 10.5 27 12 27 12Z" fill="#818CF8"/>

  <!-- Circuit nodes -->
  <circle cx="16" cy="17" r="2" fill="white"/>
  <circle cx="22" cy="15.5" r="2" fill="white"/>
  <circle cx="25" cy="20" r="2" fill="white"/>
  <circle cx="13" cy="22.5" r="2" fill="white"/>
  <circle cx="19.5" cy="21" r="2" fill="#22D3EE"/>
  <circle cx="16" cy="27" r="2" fill="white"/>
  <circle cx="22" cy="25.5" r="2" fill="white"/>

  <!-- Circuit connections -->
  <path d="M16 17L19.5 21M22 15.5L19.5 21M25 20L19.5 21M13 22.5L19.5 21M19.5 21L16 27M19.5 21L22 25.5" stroke="white" stroke-width="1" stroke-linecap="round"/>

  <!-- Neural glow effect -->
  <circle cx="19.5" cy="21" r="3.5" fill="none" stroke="#22D3EE" stroke-width="0.75" opacity="0.6"/>

  <!-- Text: workumi -->
  <text x="50" y="32" font-family="system-ui, -apple-system, sans-serif" font-size="22" font-weight="600" fill="#1E1B4B" letter-spacing="-0.5">workumi</text>
</svg>
